<svg width="71" height="71" xmlns="http://www.w3.org/2000/svg" xmlns:xlink="http://www.w3.org/1999/xlink" xmlns:svgjs="http://svgjs.com/svgjs" viewbox="375 2227 295 71">
  <svg width="71" height="71" xmlns="http://www.w3.org/2000/svg" xmlns:xlink="http://www.w3.org/1999/xlink" xmlns:svgjs="http://svgjs.com/svgjs">
    <svg xmlns="http://www.w3.org/2000/svg" width="71" height="71" viewBox="1 1.999 70 70" fill="#fe7e11">
      <path fill="#FE7E11" paint-order="stroke fill markers" fill-rule="evenodd" d="M36 2c19.33 0 35 15.67 35 35S55.33 72 36 72 1 56.33 1 37 16.67 2 36 2z"/>
    </svg>
  </svg>

  <svg x="5" y="5" width="61" height="61" xmlns="http://www.w3.org/2000/svg" xmlns:xlink="http://www.w3.org/1999/xlink" xmlns:svgjs="http://svgjs.com/svgjs">
    <svg xmlns="http://www.w3.org/2000/svg" width="61" height="61" viewBox="2 1.999 60 60" fill="#818181">
      <path paint-order="stroke fill markers" fill-rule="evenodd" d="M32 1.999c16.568 0 30 13.431 30 30 0 16.569-13.432 30-30 30C15.43 62 2 48.568 2 32 2 15.43 15.43 2 32 2z"/>
    </svg>
  </svg>

  <!-- home ico -->

  <svg viewBox="0 0 512 512" x="23" y="23" width="26" height="22" xmlns="http://www.w3.org/2000/svg">
    <path fill="#fff" d="m503.871094 231.433594-236.800782-226.984375c-6.183593-5.933594-15.957031-5.933594-22.140624 0l-237.035157 227.21875c-5.015625 5.015625-7.894531 11.925781-7.894531 18.988281 0 14.699219 11.96875 26.667969 26.667969 26.667969h37.332031v202.664062c0 17.664063 14.335938 32 32 32h90.667969c8.832031 0 16-7.167969 16-16v-138.664062c0-2.925781 2.386719-5.335938 5.332031-5.335938h96c2.921875 0 5.332031 2.410157 5.332031 5.335938v138.664062c0 8.832031 7.167969 16 16 16h90.667969c17.664062 0 32-14.335937 32-32v-202.664062h37.332031c14.699219 0 26.667969-11.96875 26.667969-26.667969 0-7.0625-2.878906-13.972656-8.128906-19.222656zm0 0"/>
  </svg>
</svg>
