<svg xmlns="http://www.w3.org/2000/svg" width="154" height="14" viewBox="0 0 154 14"><defs><clipPath id="j8vna"><path fill="#fff" d="M148-.002a6 6 0 1 1 0 12 6 6 0 0 1 0-12z"/></clipPath><clipPath id="j8vnb"><path fill="#fff" d="M6-.002a6 6 0 1 1 0 12 6 6 0 0 1 0-12z"/></clipPath></defs><g><g><path fill="none" stroke="#666" stroke-miterlimit="50" stroke-width="4" d="M148-.002a6 6 0 1 1 0 12 6 6 0 0 1 0-12z" clip-path="url(&quot;#j8vna&quot;)"/></g><g><path fill="none" stroke="#666" stroke-miterlimit="50" stroke-width="4" d="M6-.002a6 6 0 1 1 0 12 6 6 0 0 1 0-12z" clip-path="url(&quot;#j8vnb&quot;)"/></g><g><path fill="#fe7e11" d="M13.912 4.998h126.176c1.056 0 1.912.448 1.912 1s-.856 1-1.912 1H13.912c-1.056 0-1.912-.448-1.912-1s.856-1 1.912-1z"/></g><g><path fill="#666" d="M23.618 11.998h106.764c.894 0 1.618.448 1.618 1s-.724 1-1.618 1H23.618c-.894 0-1.618-.448-1.618-1s.724-1 1.618-1z"/></g></g></svg>