<svg xmlns="http://www.w3.org/2000/svg" width="26" height="26" viewBox="0 0 26 26" fill="none">
<path id="facebook_icon" d="M24.5618 0C24.9568 0 25.2953 0.140927 25.5772 0.42278C25.8591 0.704633 26 1.04305 26 1.43802V24.561C26 24.956 25.8591 25.2944 25.5772 25.5763C25.2953 25.8581 24.9568 25.9991 24.5618 25.9991H17.9426V15.9272H21.3119L21.8201 11.9999H17.9436V9.49453C17.9436 8.86257 18.0763 8.38861 18.3417 8.07263C18.6072 7.75665 19.1235 7.59866 19.8908 7.59866L21.9566 7.5816V4.07802C21.2456 3.97628 20.241 3.9254 18.9428 3.9254C17.4076 3.9254 16.1802 4.37694 15.2606 5.28001C14.341 6.18307 13.8812 7.45836 13.8812 9.10588V12.0009H10.4958V15.9282H13.8812V26H1.43818C1.04316 26 0.70471 25.8591 0.422826 25.5772C0.140942 25.2954 0 24.957 0 24.562V1.43897C0 1.04399 0.140942 0.705581 0.422826 0.423728C0.70471 0.141874 1.04316 0.000947936 1.43818 0.000947936H24.5637L24.5618 0Z" fill="#555555"/>
</svg>