<svg xmlns="http://www.w3.org/2000/svg" width="26" height="26" viewBox="0 0 26 26" fill="none">
<path id="instagram_icon" fill-rule="evenodd" clip-rule="evenodd" d="M25.9156 18.3663C25.9719 17.3728 26 15.5841 26 13C26 10.4153 25.9719 8.62654 25.9156 7.63373C25.8031 5.28601 25.1036 3.46913 23.8169 2.1831C22.5302 0.897064 20.7134 0.197487 18.3663 0.0843663C17.3735 0.0281221 15.5847 0 13 0C10.4153 0 8.62654 0.0281221 7.63373 0.0843663C5.28601 0.196855 3.46913 0.896432 2.1831 2.1831C0.897064 3.46976 0.197487 5.28664 0.0843663 7.63373C0.0281221 8.62654 0 10.4153 0 13C0 15.5847 0.0281221 17.3735 0.0843663 18.3663C0.196855 20.714 0.896432 22.5309 2.1831 23.8169C3.46976 25.1029 5.28664 25.8025 7.63373 25.9156C8.62654 25.9719 10.4153 26 13 26C15.5847 26 17.3735 25.9719 18.3663 25.9156C20.714 25.8031 22.5309 25.1036 23.8169 23.8169C25.1029 22.5302 25.8025 20.7134 25.9156 18.3663ZM12.9991 2.33555L11.7042 2.32702C10.92 2.32133 10.3247 2.32133 9.91831 2.32702C9.51196 2.33271 8.96753 2.34977 8.28502 2.37821C7.6025 2.40665 7.02142 2.46321 6.54176 2.54789C6.0621 2.63257 5.6586 2.73684 5.33125 2.86071C4.76691 3.08632 4.2705 3.41367 3.84204 3.84277C3.41357 4.27187 3.08622 4.76827 2.85998 5.33198C2.73611 5.65933 2.63184 6.06284 2.54716 6.54249C2.46247 7.02215 2.40591 7.60323 2.37748 8.28575C2.34904 8.96826 2.33197 9.51269 2.32629 9.91904C2.3206 10.3254 2.3206 10.9207 2.32629 11.705C2.33197 12.4892 2.33482 12.9208 2.33482 12.9998C2.33482 13.0788 2.33197 13.5105 2.32629 14.2947C2.3206 15.079 2.3206 15.6743 2.32629 16.0806C2.33197 16.487 2.34904 17.0314 2.37748 17.7139C2.40591 18.3964 2.46247 18.9775 2.54716 19.4572C2.63184 19.9368 2.73611 20.3403 2.85998 20.6677C3.08558 21.232 3.41294 21.7284 3.84204 22.1569C4.27114 22.5854 4.76754 22.9127 5.33125 23.139C5.6586 23.2628 6.0621 23.3671 6.54176 23.4518C7.02142 23.5365 7.6025 23.593 8.28502 23.6215C8.96753 23.6499 9.51196 23.667 9.91831 23.6727C10.3247 23.6783 10.92 23.6783 11.7042 23.6727C12.4885 23.667 12.9201 23.6641 12.9991 23.6641C13.0781 23.6641 13.5097 23.667 14.294 23.6727C15.0782 23.6783 15.6735 23.6783 16.0799 23.6727C16.4862 23.667 17.0307 23.6499 17.7132 23.6215C18.3957 23.593 18.9768 23.5365 19.4564 23.4518C19.9361 23.3671 20.3396 23.2628 20.667 23.139C21.2313 22.9134 21.7277 22.586 22.1562 22.1569C22.5846 21.7278 22.912 21.2314 23.1382 20.6677C23.2621 20.3403 23.3664 19.9368 23.451 19.4572C23.5357 18.9775 23.5923 18.3964 23.6207 17.7139C23.6492 17.0314 23.6662 16.487 23.6719 16.0806C23.6776 15.6743 23.6776 15.079 23.6719 14.2947C23.6662 13.5105 23.6634 13.0788 23.6634 12.9998C23.6634 12.9208 23.6662 12.4892 23.6719 11.705C23.6776 10.9207 23.6776 10.3254 23.6719 9.91904C23.6662 9.51269 23.6492 8.96826 23.6207 8.28575C23.5923 7.60323 23.5357 7.02215 23.451 6.54249C23.3664 6.06284 23.2621 5.65933 23.1382 5.33198C22.9126 4.76764 22.5853 4.27124 22.1562 3.84277C21.7271 3.4143 21.2307 3.08695 20.667 2.86071C20.3396 2.73684 19.9361 2.63257 19.4564 2.54789C18.9768 2.46321 18.3957 2.40665 17.7132 2.37821C17.0307 2.34977 16.4862 2.33271 16.0799 2.32702C15.6735 2.32133 15.0782 2.32133 14.294 2.32702C13.5097 2.33271 13.0781 2.33555 12.9991 2.33555ZM21.0403 7.16094C21.3449 6.85634 21.4972 6.48949 21.4972 6.06039C21.4972 5.63129 21.3449 5.26444 21.0403 4.95984C20.7357 4.65523 20.3689 4.50293 19.9398 4.50293C19.5107 4.50293 19.1438 4.65523 18.8392 4.95984C18.5346 5.26444 18.3823 5.63129 18.3823 6.06039C18.3823 6.48949 18.5346 6.85634 18.8392 7.16094C19.1438 7.46555 19.5107 7.61785 19.9398 7.61785C20.3689 7.61785 20.7357 7.46555 21.0403 7.16094ZM19.6687 12.9998C19.6687 14.8508 19.0197 16.425 17.7216 17.7224C16.4236 19.0198 14.8494 19.6688 12.999 19.6694C11.1487 19.6701 9.57445 19.0211 8.27641 17.7224C6.97837 16.4237 6.32935 14.8495 6.32935 12.9998C6.32935 11.15 6.97837 9.57581 8.27641 8.27714C9.57445 6.97847 11.1487 6.32945 12.999 6.33008C14.8494 6.33071 16.4236 6.97973 17.7216 8.27714C19.0197 9.57455 19.6687 11.1488 19.6687 12.9998ZM17.333 13C17.333 11.8037 16.9099 10.7825 16.0637 9.93628C15.2175 9.09009 14.1963 8.66699 13 8.66699C11.8037 8.66699 10.7825 9.09009 9.93628 9.93628C9.09009 10.7825 8.66699 11.8037 8.66699 13C8.66699 14.1963 9.09009 15.2175 9.93628 16.0637C10.7825 16.9099 11.8037 17.333 13 17.333C14.1963 17.333 15.2175 16.9099 16.0637 16.0637C16.9099 15.2175 17.333 14.1963 17.333 13Z" fill="#555555"/>
</svg>