<svg width="155" height="15" xmlns="http://www.w3.org/2000/svg" xmlns:xlink="http://www.w3.org/1999/xlink" xmlns:svgjs="http://svgjs.com/svgjs" viewBox="883 1041 155 15"><svg x="1025" y="1041" width="13" height="13" overflow="visible"><svg width="13" height="13" xmlns="http://www.w3.org/2000/svg" xmlns:xlink="http://www.w3.org/1999/xlink" xmlns:svgjs="http://svgjs.com/svgjs" viewBox="0 0 13 12.999"><svg xmlns="http://www.w3.org/2000/svg" xmlns:xlink="http://www.w3.org/1999/xlink" width="13" height="13" viewBox="2 1.999 12 11.999"><path paint-order="stroke fill markers" fill-rule="evenodd" d="M8 1.999a6 6 0 1 1 0 12 6 6 0 0 1 0-12z"/></svg></svg></svg><svg x="883" y="1041" width="13" height="13" overflow="visible"><svg width="13" height="13" xmlns="http://www.w3.org/2000/svg" xmlns:xlink="http://www.w3.org/1999/xlink" xmlns:svgjs="http://svgjs.com/svgjs" viewBox="0 0 13 12.999"><svg xmlns="http://www.w3.org/2000/svg" xmlns:xlink="http://www.w3.org/1999/xlink" width="13" height="13" viewBox="2 1.999 12 11.999"><path paint-order="stroke fill markers" fill-rule="evenodd" d="M8 1.999a6 6 0 1 1 0 12 6 6 0 0 1 0-12z"/></svg></svg></svg><svg x="895" y="1046" width="131" height="3" overflow="visible"><svg width="131" height="3" xmlns="http://www.w3.org/2000/svg" xmlns:xlink="http://www.w3.org/1999/xlink" xmlns:svgjs="http://svgjs.com/svgjs" viewBox="0 0.492 131 2.015"><svg xmlns="http://www.w3.org/2000/svg" xmlns:xlink="http://www.w3.org/1999/xlink" width="131" height="3" viewBox="2 1.999 130 2" fill="#fe7e11"><path fill="#FE7E11" paint-order="stroke fill markers" fill-rule="evenodd" d="M3.912 1.999h126.176c1.056 0 1.912.448 1.912 1s-.856 1-1.912 1H3.912C2.856 3.999 2 3.55 2 2.999s.856-1 1.912-1z"/></svg></svg></svg><svg x="905" y="1053" width="111" height="3" overflow="visible"><svg width="111" height="3" xmlns="http://www.w3.org/2000/svg" xmlns:xlink="http://www.w3.org/1999/xlink" xmlns:svgjs="http://svgjs.com/svgjs" viewBox="0 0.491 111 2.019"><svg xmlns="http://www.w3.org/2000/svg" width="111" height="3" viewBox="2 1.998 110 2" fill="#666"><path paint-order="stroke fill markers" fill-rule="evenodd" d="M3.618 1.998h106.764c.894 0 1.618.448 1.618 1 0 .553-.724 1-1.618 1H3.618c-.894 0-1.618-.447-1.618-1 0-.552.724-1 1.618-1z"/></svg></svg></svg></svg>