<?xml version="1.0" encoding="iso-8859-1"?>
<!-- Generator: Adobe Illustrator 19.0.0, SVG Export Plug-In . SVG Version: 6.00 Build 0)  -->
<svg version="1.1" id="Layer_1" xmlns="http://www.w3.org/2000/svg" xmlns:xlink="http://www.w3.org/1999/xlink" x="0px" y="0px"
	 viewBox="0 0 496 496" style="enable-background:new 0 0 496 496;" xml:space="preserve" fill="#FFF">
<g>
	<g>
		<path d="M362.352,0H133.616C61.184,0,0,61.2,0,133.632v228.752C0,434.816,61.184,496,133.616,496h228.736
			C434.8,496,496,434.816,496,362.384V133.632C496,61.2,434.784,0,362.352,0z M464,362.384C464,416.512,416.496,464,362.352,464
			H133.616C79.488,464,32,416.512,32,362.384V133.632C32,79.488,79.488,32,133.616,32h228.736C416.512,32,464,79.504,464,133.632
			V362.384z"/>
	</g>
</g>
<g>
	<g>
		<path d="M403.968,216c-2.112-10.256-5.232-20.32-9.28-29.888c-4.032-9.504-8.976-18.608-14.656-26.992
			c-5.584-8.304-12.08-16.224-19.392-23.552c-7.12-7.088-15.008-13.616-23.472-19.36c-8.4-5.696-17.504-10.64-27.04-14.688
			c-5.232-2.208-10.64-4.144-16.144-5.808c-4.544-1.36-9.12-2.512-13.744-3.456c-21.056-4.304-42.96-4.304-63.984,0
			c-10.176,2.08-20.224,5.2-29.92,9.28c-9.536,4.032-18.624,8.992-26.992,14.672c-8.48,5.744-16.384,12.256-23.552,19.408
			c-7.184,7.216-13.696,15.12-19.344,23.472c-5.776,8.528-10.72,17.648-14.656,27.008c-4.032,9.52-7.168,19.584-9.312,29.952
			c-2.128,10.512-3.2,21.264-3.2,31.952c0,10.672,1.072,21.424,3.216,32.064c2.128,10.272,5.248,20.32,9.28,29.84
			c4,9.44,8.928,18.528,14.672,27.024c5.648,8.336,12.16,16.24,19.376,23.488c7.152,7.152,15.072,13.68,23.536,19.392
			c8.528,5.76,17.616,10.688,26.992,14.656c9.536,4.032,19.568,7.152,29.872,9.28c10.432,2.144,21.2,3.232,32.016,3.232
			c10.8,0,21.584-1.088,32.048-3.248c10.32-2.144,20.368-5.264,29.84-9.28c9.392-3.952,18.48-8.88,27.056-14.672
			c8.448-5.728,16.352-12.24,23.536-19.408c7.248-7.296,13.76-15.2,19.312-23.456c5.68-8.4,10.624-17.488,14.672-27.024
			c4.064-9.6,7.184-19.648,9.264-29.872c2.16-10.496,3.248-21.264,3.248-32.032C407.216,237.2,406.112,226.432,403.968,216z
			 M372.592,273.6c-1.664,8.16-4.144,16.176-7.376,23.808c-3.232,7.616-7.168,14.88-11.728,21.6
			c-4.448,6.624-9.664,12.944-15.456,18.768c-5.712,5.712-12.048,10.928-18.8,15.504c-6.832,4.608-14.08,8.544-21.584,11.712
			c-7.568,3.216-15.584,5.712-23.84,7.408c-16.624,3.424-34.512,3.424-51.12,0c-8.24-1.696-16.272-4.176-23.888-7.408
			c-7.472-3.152-14.72-7.072-21.536-11.696c-6.784-4.576-13.104-9.792-18.784-15.472c-5.792-5.808-11.008-12.144-15.536-18.832
			c-4.56-6.752-8.496-14-11.68-21.552c-3.232-7.616-5.728-15.648-7.408-23.776c-1.712-8.48-2.576-17.104-2.576-25.664
			c0-8.576,0.864-17.184,2.56-25.568c1.712-8.24,4.192-16.256,7.44-23.888c3.152-7.504,7.072-14.736,11.68-21.536
			c4.528-6.688,9.744-13.024,15.488-18.784c5.712-5.696,12.048-10.912,18.864-15.536c6.672-4.528,13.92-8.464,21.488-11.68
			c7.728-3.248,15.744-5.744,23.856-7.392c8.416-1.712,17.024-2.592,25.584-2.592c8.544,0,17.168,0.88,25.6,2.592
			c3.68,0.752,7.344,1.68,10.928,2.752c4.384,1.328,8.704,2.88,12.88,4.64c7.616,3.216,14.88,7.152,21.552,11.68
			c6.8,4.608,13.136,9.84,18.8,15.504c5.824,5.84,11.04,12.16,15.52,18.832c4.544,6.72,8.48,13.968,11.696,21.568
			c3.232,7.616,5.712,15.632,7.392,23.856c1.712,8.336,2.592,16.928,2.592,25.536C375.2,256.592,374.32,265.2,372.592,273.6z"/>
	</g>
</g>
<g>
	<g>
		<path d="M325.296,373.584c-0.656-2.96-16.272-73.504-41.568-140c-21.216-55.888-76.4-124.48-78.736-127.376
			c-5.552-6.864-15.616-7.936-22.496-2.384c-6.864,5.552-7.936,15.632-2.384,22.496c0.544,0.672,54.32,67.552,73.728,118.64
			c24.432,64.24,40.064,134.816,40.224,135.52c1.648,7.472,8.272,12.56,15.616,12.56c1.152,0,2.304-0.112,3.424-0.4
			C321.728,390.752,327.2,382.224,325.296,373.584z"/>
	</g>
</g>
<g>
	<g>
		<path d="M358.384,133.728c-7.28-5.008-17.248-3.136-22.24,4.112c-0.352,0.528-35.984,51.616-81.456,62.976
			c-61.328,15.36-147.888,18.912-148.752,18.944c-8.832,0.336-15.712,7.776-15.36,16.608c0.336,8.624,7.424,15.376,15.984,15.376
			c0.208,0,0.416,0,0.608-0.016c3.68-0.144,90.704-3.696,155.28-19.856c57.36-14.352,98.368-73.408,100.08-75.92
			C367.52,148.672,365.664,138.72,358.384,133.728z"/>
	</g>
</g>
<g>
	<g>
		<path d="M397.712,245.712c-3.072-1.488-76.16-36.384-149.664-0.448c-61.504,30.048-111.28,91.184-113.36,93.776
			c-5.552,6.864-4.48,16.944,2.4,22.496c2.96,2.4,6.496,3.552,10.032,3.552c4.672,0,9.296-2.032,12.448-5.968
			c0.48-0.576,47.312-58.16,102.512-85.12c59.232-28.912,120.992,0.176,121.616,0.48c7.968,3.84,17.488,0.544,21.36-7.376
			C408.944,259.168,405.648,249.584,397.712,245.712z"/>
	</g>
</g>
<g>
</g>
<g>
</g>
<g>
</g>
<g>
</g>
<g>
</g>
<g>
</g>
<g>
</g>
<g>
</g>
<g>
</g>
<g>
</g>
<g>
</g>
<g>
</g>
<g>
</g>
<g>
</g>
<g>
</g>
</svg>
