<?xml version="1.0" encoding="iso-8859-1"?>
<!-- Generator: Adobe Illustrator 19.0.0, SVG Export Plug-In . SVG Version: 6.00 Build 0)  -->
<svg version="1.1" id="Layer_1" xmlns="http://www.w3.org/2000/svg" xmlns:xlink="http://www.w3.org/1999/xlink" x="0px" y="0px"
	 viewBox="0 0 496 496" style="enable-background:new 0 0 496 496;" xml:space="preserve" fill="#FFF">
<g>
	<g>
		<path d="M290.912,214.208c-9.968-13.792-26.016-22.032-42.944-22.032s-32.976,8.24-42.944,22.048c-6.544,9.072-10,19.76-10,30.896
			c0,29.2,23.744,52.928,52.944,52.928s52.976-23.728,52.976-52.944C300.944,233.984,297.472,223.296,290.912,214.208z
			 M247.968,266.048c-11.552,0-20.944-9.392-20.944-20.928c0-4.368,1.36-8.576,3.952-12.16c4.016-5.568,10.224-8.768,16.992-8.768
			s12.976,3.184,16.992,8.752c2.608,3.616,3.984,7.824,3.984,12.176C268.944,256.672,259.536,266.048,247.968,266.048z"/>
	</g>
</g>
<g>
	<g>
		<path d="M402.704,216.528h-79.376c-4.928,0-9.584,2.272-12.608,6.144s-4.112,8.928-2.928,13.712
			c2.096,8.416,3.984,12.384,5.424,14.48c0.08,0.624,0.08,1.424,0.08,2.544c0,34.496-28.08,60.512-65.312,60.512
			c-38.464,0-65.328-23.888-65.328-58.096c0-2.592,0.16-3.264,0.16-3.264c0.144-0.56,0.384-1.008,0.624-1.6
			c1.12-2.688,2.8-6.752,4.736-14.592c1.184-4.768,0.112-9.824-2.928-13.696c-3.04-3.872-7.68-6.144-12.608-6.144H93.328
			c-8.832,0-16,7.168-16,16c0,8.832,7.168,16,16,16h57.728c-0.272,2.016-0.416,4.384-0.416,7.296
			c0,51.36,41.84,90.096,97.328,90.096c55.472,0,97.312-39.76,97.344-92.512c0-1.84-0.064-3.44-0.176-4.88h57.568
			c8.832,0,16-7.168,16-16C418.704,223.696,411.536,216.528,402.704,216.528z"/>
	</g>
</g>
<g>
	<g>
		<path d="M396.704,145.696c-0.016,0-0.032,0-0.032,0L328,145.84l-0.144-52.608c-0.016-8.832-7.184-15.968-16-15.968
			c-0.016,0-0.016,0-0.032,0c-8.848,0.016-15.984,7.2-15.968,16.032l0.176,68.608c0.016,8.832,7.184,15.968,16,15.968
			c0,0,0.016,0,0.048,0l84.656-0.176c8.832-0.016,15.984-7.2,15.968-16.032C412.688,152.832,405.52,145.696,396.704,145.696z"/>
	</g>
</g>
<g>
	<g>
		<g>
			<path d="M339.216,77.328H156.72c-42.288,0-79.392,34.32-79.392,73.44v182.48c0,38.448,36.64,85.424,79.392,85.424h182.496
				c42.784,0,79.456-46.976,79.456-85.424v-182.48C418.672,111.648,381.552,77.328,339.216,77.328z M386.672,333.248
				c0,24.464-25.728,53.424-47.456,53.424H156.72c-21.696,0-47.392-28.96-47.392-53.424v-182.48c0-21.296,23.024-41.44,47.392-41.44
				h182.496c24.4,0,47.456,20.144,47.456,41.44V333.248z"/>
			<path d="M366.976,0H128.992C53.04,0,0,50.592,0,123.04v237.92C0,436.688,56.656,496,128.992,496h237.984
				C439.328,496,496,436.688,496,360.96V123.04C496,50.608,442.944,0,366.976,0z M464,360.96C464,419.696,422.304,464,366.976,464
				H128.992C73.696,464,32,419.712,32,360.96V123.04C32,67.728,70.064,32,128.992,32h237.984C425.92,32,464,67.728,464,123.04
				V360.96z"/>
		</g>
	</g>
</g>
<g>
</g>
<g>
</g>
<g>
</g>
<g>
</g>
<g>
</g>
<g>
</g>
<g>
</g>
<g>
</g>
<g>
</g>
<g>
</g>
<g>
</g>
<g>
</g>
<g>
</g>
<g>
</g>
<g>
</g>
</svg>
