<?xml version="1.0" encoding="iso-8859-1"?>
<!-- Generator: Adobe Illustrator 19.0.0, SVG Export Plug-In . SVG Version: 6.00 Build 0)  -->
<svg version="1.1" id="Layer_1" xmlns="http://www.w3.org/2000/svg" xmlns:xlink="http://www.w3.org/1999/xlink" x="0px" y="0px"
	 viewBox="0 0 496 496" style="enable-background:new 0 0 496 496;" xml:space="preserve" fill="#FFF">
<g>
	<g>
		<path d="M303.792,230l-76.4-41.584c-4.96-2.688-10.96-2.592-15.824,0.304c-4.848,2.88-7.824,8.112-7.824,13.76l0.032,82.8
			c0,5.632,2.976,10.848,7.808,13.744c2.528,1.504,5.36,2.256,8.192,2.256c2.608,0,5.232-0.64,7.6-1.92l76.368-41.232
			c5.168-2.784,8.4-8.176,8.4-14.048C312.144,238.208,308.944,232.8,303.792,230z M235.776,258.464l-0.016-29.072l26.816,14.592
			L235.776,258.464z"/>
	</g>
</g>
<g>
	<g>
		<g>
			<path d="M362,0H135.872C63.488,0,0,62.608,0,133.984v226.128C0,431.232,64.768,496,135.872,496H362
				c71.376,0,134-63.504,134-135.888V133.984C496,62.608,433.376,0,362,0z M464,360.112C464,414.48,415.376,464,362,464H135.872
				C82.48,464,32,413.52,32,360.112V133.984C32,80.608,81.504,32,135.872,32H362c53.376,0,102,48.608,102,101.984V360.112z"/>
			<path d="M388.016,147.12c-14.336-15.6-30.576-17.536-38.896-18.512c-39.472-2.976-98.976-4.848-100.064-4.864h-0.144
				c-0.16,0-0.336,0-0.496,0c-0.592,0.016-60.016,1.888-100.208,4.928c-5.632,0.672-22.768,2.768-37.824,19.184
				c-11.52,12.16-14.688,34.048-15.248,38.736C95.04,187.6,92.8,211.504,92.8,235.824v22.352c0,24.32,2.192,48.176,2.32,49.424
				c0.448,4.272,3.312,26.272,14.736,38.336c12.896,14.096,28.64,16.064,37.104,17.104c1.056,0.128,1.984,0.24,4.192,0.592
				c23.072,2.32,94.448,3.024,97.648,3.056c2.448,0,60.24-0.128,99.952-3.104c0.288-0.016,2.048-0.224,2.352-0.256
				c6.704-0.72,22.4-2.368,35.984-17.2c11.648-12.32,14.32-34.384,14.8-39.376c0.064-0.992,1.328-24.56,1.328-48.576v-22.352
				c0-23.984-1.28-48.016-1.328-49.088C401.632,182.288,399.728,159.504,388.016,147.12z M371.216,258.16
				c0,22.912-1.232,46.16-1.216,46.16c-0.672,6.864-3.52,16.992-6.336,19.984c-5.584,6.096-10.848,6.656-15.936,7.184l-1.376,0.176
				c-38.512,2.88-97.008,3.008-97.408,3.008c-0.72,0-72.928-0.72-93.12-2.688c-1.376-0.272-3.04-0.48-4.912-0.72
				c-5.872-0.736-12.512-1.552-17.632-7.152c-2.768-2.896-5.568-12.864-6.336-19.728c-0.016-0.24-2.144-23.36-2.144-46.224v-22.352
				c0-22.656,2.144-45.744,2.144-45.744c0.896-7.184,3.872-17.248,6.832-20.416c6.432-6.992,13.152-8.608,17.552-9.168
				c37.008-2.784,92.272-4.576,97.648-4.752c5.376,0.16,60.704,1.968,97.744,4.768c4.816,0.576,11.424,1.36,17.888,8.4
				c2.256,2.384,4.848,11.952,5.328,19.584c0.016,0.256,1.28,24.208,1.28,47.328V258.16z"/>
		</g>
	</g>
</g>
<g>
</g>
<g>
</g>
<g>
</g>
<g>
</g>
<g>
</g>
<g>
</g>
<g>
</g>
<g>
</g>
<g>
</g>
<g>
</g>
<g>
</g>
<g>
</g>
<g>
</g>
<g>
</g>
<g>
</g>
</svg>
