<svg height="512" viewBox="0 0 60 59" width="512" xmlns="http://www.w3.org/2000/svg"><g id="Page-1" fill="none" fill-rule="evenodd"><g id="009---Sidewinds" fill-rule="nonzero"><path id="Shape" d="m22.69 21.2-12.234-9.218 12.233-9.182c.2858125-.21435935.4355547-.5649147.3928203-.91961525-.0427344-.35470054-.2714531-.65965882-.6-.8-.3285469-.14034119-.7070078-.09474411-.9928203.11961525l-12.723 9.549c-.42676799-.2307673-.95796864-.1171506-1.253.268-.15912989.2121732-.22745677.4788704-.18994949.7414214.03750727.2625509.1777763.4994487.38994949.6585786l13.774 10.383c.2858125.2143594.6642734.2599564.9928203.1196152.3285469-.1403411.5572656-.4452994.6-.8.0427344-.3547005-.1070078-.7052558-.3928203-.9196152z" fill="#547580"/><path id="Shape" d="m58.181 17.151-36 6.631c-.2917405.0536922-.5922616-.024911-.8203526-.2145683-.228091-.1896574-.3602075-.4707918-.3606474-.7674317v-21.6c.0001434-.29681487.1321334-.57822825.3602637-.76811148.2281303-.18988324.5288239-.26861205.8207363-.21488852l36 6.631c.4750695.08743111.8197326.50195266.819.985v8.334c.0002495.4826705-.3443017.8966367-.819.984z" fill="#ecf0f1"/><path id="Shape" d="m37 21.05v-18.1l-10-1.84v21.78z" fill="#f29c1f"/><path id="Shape" d="m53 5.9v12.2l-10 1.85v-15.9z" fill="#f29c1f"/><path id="Shape" d="m8 4c1.1045695 0 2 .8954305 2 2v52h-4v-52c0-1.1045695.8954305-2 2-2z" fill="#95a5a5"/><g fill="#2fa8cc"><path id="Shape" d="m42 35h-20c-.5522847 0-1-.4477153-1-1s.4477153-1 1-1h20c1.6568542 0 3-1.3431458 3-3s-1.3431458-3-3-3h-2c-.5522847 0-1-.4477153-1-1s.4477153-1 1-1h2c2.7614237 0 5 2.2385763 5 5s-2.2385763 5-5 5z"/><path id="Shape" d="m55 41h-14c-.5522847 0-1-.4477153-1-1s.4477153-1 1-1h14c1.6568542 0 3-1.3431458 3-3s-1.3431458-3-3-3h-1c-.5522847 0-1-.4477153-1-1s.4477153-1 1-1h1c2.7614237 0 5 2.2385763 5 5s-2.2385763 5-5 5z"/><path id="Shape" d="m41 52h-2c-.5522847 0-1-.4477153-1-1s.4477153-1 1-1h2c1.1045695 0 2-.8954305 2-2s-.8954305-2-2-2h-19c-.5522847 0-1-.4477153-1-1s.4477153-1 1-1h19c2.209139 0 4 1.790861 4 4s-1.790861 4-4 4z"/><path id="Shape" d="m36 41h-10c-.5522847 0-1-.4477153-1-1s.4477153-1 1-1h10c.5522847 0 1 .4477153 1 1s-.4477153 1-1 1z"/></g><path id="Rectangle-path" d="m6 10h4v4h-4z" fill="#3f5c6c"/><path id="Shape" d="m59 59h-4c-.5522847 0-1-.4477153-1-1s.4477153-1 1-1h4c.5522847 0 1 .4477153 1 1s-.4477153 1-1 1z" fill="#a56a43"/><path id="Shape" d="m49 59h-48c-.55228475 0-1-.4477153-1-1s.44771525-1 1-1h48c.5522847 0 1 .4477153 1 1s-.4477153 1-1 1z" fill="#a56a43"/></g></g></svg>