<svg xmlns="http://www.w3.org/2000/svg" xmlns:xlink="http://www.w3.org/1999/xlink" width="20" height="20"
  viewBox="0 0 512 512" style="enable-background:new 0 0 512 512;" xml:space="preserve">
  <path d="M483.328,137.952l-1.664,0.736c-37.312,16.608-76.064,28.672-115.808,36.608c11.232,53.28,11.2,108.32-0.064,161.568
    c39.744,7.904,78.688,19.872,115.84,36.416l1.632,0.736C501.536,338.656,512,298.592,512,256S501.536,173.344,483.328,137.952z"/>
  <path d="M186.112,363.168c14.144,45.024,37.472,87.68,69.856,125.376c32.384-37.696,55.744-80.352,69.856-125.376
    C279.456,357.024,232.48,357.056,186.112,363.168z"/>
  <path d="M334.144,180.288c-25.728,3.616-51.712,6.08-78.144,6.08c-26.464,0-52.448-2.496-78.176-6.08
    c-10.784,49.984-10.784,101.696,0.064,151.68c51.808-7.2,104.384-7.2,156.192,0C344.928,281.984,344.96,230.272,334.144,180.288z"
    />
  <path d="M255.968,23.456c-32.384,37.696-55.712,80.352-69.856,125.408c46.368,6.112,93.376,6.112,139.712,0
    C311.68,103.84,288.352,61.152,255.968,23.456z"/>
  <path d="M278.048,0c37.568,43.008,64.32,92.064,79.872,143.872c37.312-7.296,73.856-18.4,108.736-33.792
    C424.416,48.672,356.256,6.72,278.048,0z"/>
  <path d="M45.312,110.08c34.912,15.36,71.456,26.496,108.736,33.792C169.6,92.064,196.352,43.008,233.92,0
    C155.712,6.72,87.584,48.672,45.312,110.08z"/>
  <path d="M146.144,175.328c-39.744-7.968-78.464-20-115.744-36.608l-1.664-0.736C10.464,173.344,0,213.408,0,256
    s10.464,82.656,28.736,118.048l1.664-0.736c37.12-16.576,76.064-28.544,115.808-36.416
    C134.912,283.648,134.912,228.608,146.144,175.328z"/>
  <path d="M154.048,368.16c-37.312,7.264-73.856,18.4-108.736,33.76C87.584,463.328,155.712,505.28,233.92,512
    C196.352,468.992,169.6,419.936,154.048,368.16z"/>
  <path d="M357.92,368.128C342.4,419.936,315.616,468.992,278.048,512c78.208-6.72,146.368-48.672,188.608-110.08
    C431.776,386.528,395.232,375.424,357.92,368.128z"/>
</svg>
